# Blender v2.76 (sub 0) OBJ File: 'Toyota Corolla AE86.blend'
# www.blender.org
o Plane
v 0.529662 0.136688 0.669337
v 0.517831 -0.857306 0.687297
v 0.737489 0.846538 0.265774
v 0.684336 -1.883304 0.346736
v 0.819625 2.057809 -0.100068
v 0.737735 -2.142183 0.008288
v 0.791738 1.969377 0.051003
v 0.681829 -2.016212 0.340163
v 0.673055 -2.015302 -0.365178
v 0.754845 2.008322 -0.410958
v 0.682502 -1.589054 -0.423411
v 0.697566 -0.845467 -0.456340
v 0.753701 -1.337207 -0.012539
v 0.759163 -1.058895 -0.019728
v 0.750976 -1.295499 0.005427
v 0.706982 -1.564801 -0.219008
v 0.727525 -1.507725 -0.122816
v 0.746277 -1.414117 -0.040226
v 0.754078 -0.996277 -0.052853
v 0.740034 -0.923205 -0.132102
v 0.720346 -0.877531 -0.236240
v 0.750122 -1.181414 0.019962
v 0.756216 -1.080840 -0.006125
v 0.732297 0.856710 -0.456338
v 0.748461 1.648310 -0.467067
v 0.799205 1.012226 -0.073086
v 0.809160 1.517608 -0.086146
v 0.781923 1.619992 -0.234396
v 0.765924 0.898430 -0.225720
v 0.787746 1.182546 0.006884
v 0.792663 1.387029 -0.003691
v -0.520184 0.137142 0.668176
v -0.728278 0.847357 0.264037
v -0.508751 -0.857306 0.687297
v -0.675041 -1.883300 0.346694
v -0.810376 2.057812 -0.100099
v -0.728912 -2.142188 0.008329
v -0.782614 1.969059 0.049298
v -0.672573 -2.016209 0.340128
v -0.663967 -2.015302 -0.365177
v -0.745757 2.008322 -0.410957
v -0.673335 -1.589051 -0.423392
v -0.688479 -0.845467 -0.456338
v -0.744727 -1.337207 -0.012497
v -0.750126 -1.058895 -0.019682
v -0.742028 -1.295501 0.005455
v -0.697893 -1.564800 -0.219006
v -0.718492 -1.507726 -0.122826
v -0.737285 -1.414119 -0.040245
v -0.745026 -0.996278 -0.052859
v -0.730973 -0.923205 -0.132107
v -0.711272 -0.877531 -0.236242
v -0.741143 -1.181415 0.019983
v -0.747255 -1.080841 -0.006100
v -0.723192 0.856711 -0.456333
v -0.739413 1.648309 -0.467075
v -0.790129 1.012226 -0.073113
v -0.799983 1.517610 -0.086171
v -0.772804 1.619993 -0.234388
v -0.756837 0.898431 -0.225718
v -0.778486 1.182550 0.006850
v -0.783390 1.387032 -0.003728
vn 0.980500 -0.024500 -0.194900
vn 0.980300 -0.024000 -0.195900
vn 0.980200 -0.024100 -0.196700
vn 0.984900 -0.014600 0.172200
vn -0.980400 -0.024300 -0.195500
vn -0.980300 -0.024000 -0.196000
vn -0.979500 -0.022700 -0.200000
vn 0.893500 -0.004100 0.449100
vn -0.000000 -0.946900 -0.321700
vn -0.000000 -0.049400 0.998800
vn -0.000000 -0.934900 0.354900
vn -0.000000 -0.315100 0.949100
vn -0.001100 0.019200 0.999800
vn -0.985400 -0.014100 0.169700
vn -0.894000 -0.003900 0.448100
vn -0.000800 0.494400 0.869200
vn -0.001100 0.188000 0.982200
vn -0.000000 0.859700 0.510700
vn -0.000000 0.987600 -0.157200
vn 0.992700 -0.037600 -0.114400
vn 0.984200 -0.016900 -0.176200
vn 0.994200 -0.020300 -0.105900
vn 0.989900 -0.024600 -0.139900
vn 0.979400 -0.022800 -0.200400
vn 0.989900 0.004500 -0.141800
vn 0.984900 -0.014600 0.172300
vn 0.984000 -0.027300 0.176100
vn 0.985800 -0.015200 0.167200
vn 0.982400 -0.016700 0.185900
vn 0.984700 -0.010600 0.174000
vn 0.987200 -0.018700 0.158600
vn 0.984700 -0.014700 0.173700
vn 0.984800 -0.014600 0.173200
vn 0.985600 -0.014100 0.168200
vn 0.985000 -0.014800 0.172000
vn 0.985600 -0.014200 0.168500
vn -0.992700 -0.037500 -0.114800
vn -0.984100 -0.016700 -0.176800
vn -0.989900 -0.024600 -0.140000
vn -0.994200 -0.020300 -0.105900
vn -0.980300 -0.023900 -0.196300
vn -0.989900 0.004600 -0.141500
vn 0.890700 -0.002400 0.454500
vn -0.000000 -0.946800 -0.321700
vn -0.000000 -0.049300 0.998800
vn 0.000000 -0.934900 0.355000
vn -0.000000 -0.315000 0.949100
vn 0.000000 0.018100 0.999800
vn -0.987000 -0.018500 0.159900
vn -0.984600 -0.014400 0.174400
vn -0.984700 -0.014200 0.173700
vn -0.984500 -0.014600 0.175000
vn -0.984700 -0.014500 0.173500
vn -0.983800 -0.027000 0.177300
vn -0.985600 -0.015000 0.168400
vn -0.983100 -0.015800 0.182200
vn -0.984700 -0.011200 0.174000
vn -0.984800 -0.014700 0.173100
vn -0.985400 -0.013900 0.169400
vn -0.890100 -0.001500 0.455700
vn -0.000700 0.494400 0.869200
vn -0.001100 0.187900 0.982200
vn -0.000700 0.863100 0.505100
s off
f 17//1 6//1 16//1
f 26//2 19//2 20//2
f 27//3 28//3 5//3
f 26//4 30//4 3//4
f 37//5 48//5 47//5
f 51//6 57//6 60//6
f 41//7 59//7 36//7
f 2//8 4//8 3//8
f 6//9 37//9 40//9
f 8//10 4//10 35//10
f 6//11 8//11 39//11
f 2//12 34//12 35//12
f 1//13 32//13 34//13
f 54//14 35//14 33//14
f 33//15 35//15 34//15
f 3//16 33//16 32//16
f 7//17 38//17 33//17
f 5//18 36//18 38//18
f 10//19 41//19 36//19
f 9//20 11//20 16//20
f 18//1 13//1 6//1
f 9//21 16//21 6//21
f 17//1 18//1 6//1
f 12//22 24//22 21//22
f 29//2 26//2 20//2
f 21//23 24//23 29//23
f 26//2 14//2 19//2
f 20//2 21//2 29//2
f 10//24 5//24 28//24
f 28//25 25//25 10//25
f 7//26 3//26 31//26
f 4//27 8//27 6//27
f 6//28 13//28 4//28
f 23//29 14//29 3//29
f 13//30 15//30 4//30
f 22//31 23//31 4//31
f 31//32 27//32 7//32
f 14//4 26//4 3//4
f 27//33 5//33 7//33
f 4//34 15//34 22//34
f 30//35 31//35 3//35
f 4//36 23//36 3//36
f 47//37 42//37 40//37
f 37//5 44//5 49//5
f 47//38 40//38 37//38
f 37//5 49//5 48//5
f 60//39 55//39 52//39
f 50//6 45//6 57//6
f 55//40 43//40 52//40
f 51//6 50//6 57//6
f 60//6 52//6 51//6
f 58//41 36//41 59//41
f 41//42 56//42 59//42
f 1//43 2//43 3//43
f 9//44 6//44 40//44
f 39//45 8//45 35//45
f 37//46 6//46 39//46
f 4//47 2//47 35//47
f 2//48 1//48 34//48
f 35//49 54//49 53//49
f 38//50 36//50 58//50
f 61//51 57//51 33//51
f 38//52 58//52 62//52
f 57//53 45//53 33//53
f 38//53 62//53 33//53
f 39//54 35//54 37//54
f 44//55 37//55 35//55
f 45//56 54//56 33//56
f 46//57 44//57 35//57
f 62//58 61//58 33//58
f 53//59 46//59 35//59
f 32//60 33//60 34//60
f 1//61 3//61 32//61
f 3//62 7//62 33//62
f 7//63 5//63 38//63
f 5//19 10//19 36//19
